<svg width="68" height="67" viewBox="0 0 68 67" fill="none" xmlns="http://www.w3.org/2000/svg">
<path fill-rule="evenodd" clip-rule="evenodd" d="M33.866 0.5C42.8189 0.5 51.2194 3.93256 57.5516 10.1698C63.8838 16.407 67.3828 24.6814 67.3828 33.5C67.3828 42.3186 63.898 50.593 57.5658 56.8302C51.106 63.193 42.5214 66.5 33.8518 66.5C28.4545 66.5 23.0148 65.2163 18.0425 62.5791C13.5802 65.7465 9.21707 66.4302 6.25637 66.4302C5.15142 66.4302 4.24479 66.3326 3.60732 66.2349C2.24738 66.0256 1.1991 64.9791 0.986605 63.6395C0.774114 62.3 1.46825 61.0023 2.7007 60.4023C5.26475 59.1605 6.993 56.6767 8.06962 54.5419C-2.90906 41.5233 -2.05909 22.2256 10.1804 10.1698C16.5126 3.93256 24.913 0.5 33.866 0.5ZM18.8358 58.714C30.4803 65.4535 45.2838 63.5837 54.8459 54.1651C66.4195 42.7651 66.4195 24.2349 54.8317 12.8349C43.2722 1.43488 24.4456 1.43488 12.8719 12.8349C1.79407 23.7465 1.25576 41.3279 11.6253 52.8674C11.8945 53.1744 12.0503 53.5512 12.0928 53.9279C12.1919 54.3186 12.1636 54.7372 11.9936 55.1419C10.9312 57.5279 9.11791 60.5977 6.2422 62.6628H6.25637C8.74959 62.6628 12.5178 62.0488 16.3568 59.1186C16.3993 59.0767 16.4559 59.0349 16.5126 59.007C17.1217 58.407 18.0708 58.2674 18.8358 58.714Z" fill="white"/>
<path d="M36.3828 34C36.3828 35.3807 35.2635 36.5 33.8828 36.5C32.5021 36.5 31.3828 35.3807 31.3828 34C31.3828 32.6193 32.5021 31.5 33.8828 31.5C35.2635 31.5 36.3828 32.6193 36.3828 34Z" fill="white"/>
<path d="M48.3828 34C48.3828 35.3807 47.2635 36.5 45.8828 36.5C44.5021 36.5 43.3828 35.3807 43.3828 34C43.3828 32.6193 44.5021 31.5 45.8828 31.5C47.2635 31.5 48.3828 32.6193 48.3828 34Z" fill="white"/>
<path d="M24.3828 34C24.3828 35.3807 23.2635 36.5 21.8828 36.5C20.5021 36.5 19.3828 35.3807 19.3828 34C19.3828 32.6193 20.5021 31.5 21.8828 31.5C23.2635 31.5 24.3828 32.6193 24.3828 34Z" fill="white"/>
</svg>
